<svg xmlns="http://www.w3.org/2000/svg"
 xmlns:xlink="http://www.w3.org/1999/xlink"
 width="66px" height="59px"  viewBox="0 0 66 59">
<path fill-rule="evenodd"  fill="#ccd0d2"
 d="M45.220825,50.042786 C45.220825,50.042786 45.220825,50.042786 45.220825,50.042786 C44.116333,50.042786 43.220825,49.14868 43.220825,48.042236 C43.220825,46.937683 44.116333,46.04309 45.220825,46.04309 C45.220825,46.04309 49.791138,46.04309 49.791138,46.04309 C56.63208,46.04309 61.14856,38.44763 61.14856,31.631104 C61.14856,24.140442 54.633057,18.112793 47.204224,17.957458 C47.204224,17.957458 45.76172,17.926025 45.76172,17.926025 C45.76172,17.926025 45.33496,16.548645 45.33496,16.548645 C43.27063,9.873291 38.80774,5.9591675 30.863403,5.9591675 C20.95227,5.9591675 14.541016,13.306824 14.541016,23.048584 C14.541016,23.048584 14.555664,23.072266 14.555664,23.072266 C14.555664,23.072266 14.7178955,24.906128 14.7178955,24.906128 C14.7178955,24.906128 12.902466,25.219055 12.902466,25.219055 C8.479492,25.97882 4.953125,30.515137 4.953125,35.545227 C4.953125,41.236206 9.36145,46.04309 14.504883,46.04309 C14.504883,46.04309 20.283325,46.04309 20.283325,46.04309 C21.387695,46.04309 22.283325,46.937683 22.283325,48.042236 C22.283325,49.14868 21.387695,50.042786 20.283325,50.042786 C20.283325,50.042786 14.504883,50.042786 14.504883,50.042786 C7.1933594,50.042786 1.015625,43.404358 1.015625,35.545227 C1.015625,29.124512 5.0264893,23.457153 10.58313,21.680725 C11.276489,10.515564 19.33899,1.9589844 30.863403,1.9589844 C39.920044,1.9589844 45.91626,6.646057 48.706177,14.048828 C57.75,15.02179 64.9845,22.39862 64.9845,31.631104 C64.9845,40.218628 59.775513,49.77362 49.775513,50.03778 C49.775513,50.03778 45.220825,50.042786 45.220825,50.042786 ZM32.97168,33.281372 C32.97168,33.281372 39.3916,40.361633 39.3916,40.361633 C39.950195,40.945618 40.854614,41.13507 41.41333,40.55066 C41.41333,40.55066 41.916992,40.209534 41.916992,40.209534 C42.475586,39.622803 42.475586,38.6781 41.916992,38.094177 C41.916992,38.094177 34.51477,29.984497 34.51477,29.984497 C34.504883,29.972595 34.500977,29.961243 34.491455,29.951233 C34.491455,29.951233 33.985596,29.422363 33.985596,29.422363 C33.70813,29.129028 33.33899,28.98462 32.97168,28.986938 C32.60266,28.98462 32.235596,29.129028 31.954102,29.422363 C31.954102,29.422363 31.448242,29.951233 31.448242,29.951233 C31.438599,29.961243 31.43689,29.974426 31.42688,29.984497 C31.42688,29.984497 24.20813,37.968445 24.20813,37.968445 C23.649658,38.55243 23.649658,39.4989 24.20813,40.0838 C24.20813,40.0838 24.712036,40.426758 24.712036,40.426758 C25.270508,41.010254 26.176758,40.820312 26.735474,40.23639 C26.735474,40.23639 32.97168,33.281372 32.97168,33.281372 ZM32.99231,57.641907 C34.0968,57.641907 34.99243,56.746826 34.99243,55.6427 C34.99243,55.6427 34.99243,33.643005 34.99243,33.643005 C34.99243,32.53662 34.0968,31.642029 32.99231,31.642029 C31.887817,31.642029 30.992432,32.53662 30.992432,33.643005 C30.992432,33.643005 30.992432,55.6427 30.992432,55.6427 C30.992432,56.746826 31.887817,57.641907 32.99231,57.641907 Z"/>
</svg>