<svg xmlns="http://www.w3.org/2000/svg"
 xmlns:xlink="http://www.w3.org/1999/xlink"
 width="35px" height="35px"  viewBox="0 0 35 35">
<path fill-rule="evenodd"  fill="#ffffff"
 d="M17.000122,1.0014648 C25.83667,1.0014648 33.000122,8.165039 33.000122,17.00122 C33.000122,25.838135 25.83667,33.00122 17.000122,33.00122 C8.163574,33.00122 1.0001221,25.838135 1.0001221,17.00122 C1.0001221,8.165039 8.163574,1.0014648 17.000122,1.0014648 ZM18.947754,12.015381 C18.947754,12.015381 21.010376,12.015381 21.010376,12.015381 C21.010376,12.015381 21.010376,8.969971 21.010376,8.969971 C21.010376,8.969971 18.586487,8.969971 18.586487,8.969971 C18.586487,8.969971 18.586487,8.980957 18.586487,8.980957 C15.650391,9.0842285 15.047546,10.73584 14.994629,12.469971 C14.994629,12.469971 14.988831,12.469971 14.988831,12.469971 C14.988831,12.469971 14.988831,13.9904785 14.988831,13.9904785 C14.988831,13.9904785 12.989624,13.9904785 12.989624,13.9904785 C12.989624,13.9904785 12.989624,16.974365 12.989624,16.974365 C12.989624,16.974365 14.988831,16.974365 14.988831,16.974365 C14.988831,16.974365 14.988831,24.969727 14.988831,24.969727 C14.988831,24.969727 18.00354,24.969727 18.00354,24.969727 C18.00354,24.969727 18.00354,16.974365 18.00354,16.974365 C18.00354,16.974365 20.472229,16.974365 20.472229,16.974365 C20.472229,16.974365 20.947876,13.9904785 20.947876,13.9904785 C20.947876,13.9904785 18.00354,13.9904785 18.00354,13.9904785 C18.00354,13.9904785 18.00354,13.071289 18.00354,13.071289 C18.00354,12.486816 18.392761,12.015381 18.947754,12.015381 Z"/>
</svg>