<svg xmlns="http://www.w3.org/2000/svg"
 xmlns:xlink="http://www.w3.org/1999/xlink"
 width="35px" height="35px"  viewBox="0 0 35 35">
<path fill-rule="evenodd"  fill="#ffffff"
 d="M17.039795,33.041016 C8.199585,33.041016 1.0074463,25.863281 1.0074463,17.039795 C1.0074463,8.217041 8.199585,1.0390625 17.039795,1.0390625 C25.880005,1.0390625 33.07202,8.217041 33.07202,17.039795 C33.07202,25.863281 25.880005,33.041016 17.039795,33.041016 ZM17.039795,3.0307617 C9.300049,3.0307617 3.003662,9.31543 3.003662,17.039795 C3.003662,24.764404 9.300049,31.048584 17.039795,31.048584 C24.779663,31.048584 31.075928,24.764404 31.075928,17.039795 C31.075928,9.31543 24.779663,3.0307617 17.039795,3.0307617 ZM17.477295,33.041016 C12.702393,33.041016 7.9613037,26.012695 7.9613037,17.039795 C7.9613037,8.066895 12.702393,1.0390625 17.477295,1.0390625 C22.252197,1.0390625 26.02417,8.066895 26.02417,17.039795 C26.02417,26.012695 22.252197,33.041016 17.477295,33.041016 ZM17.056885,3.0307617 C13.295044,3.0307617 9.9609375,9.446533 9.9609375,17.039795 C9.9609375,24.632812 13.295044,31.048584 17.056885,31.048584 C20.818848,31.048584 24.027832,24.632812 24.027832,17.039795 C24.027832,9.446533 20.818848,3.0307617 17.056885,3.0307617 ZM17.039795,14.026611 C7.7893066,14.026611 3.7200928,12.849121 3.5513916,12.798096 C3.5513916,12.798096 4.1186523,10.888672 4.1186523,10.888672 C4.157715,10.9001465 8.133301,12.034668 17.039795,12.034668 C26.181152,12.034668 29.66748,10.838135 29.70166,10.826172 C29.70166,10.826172 30.368286,12.703857 30.368286,12.703857 C30.216064,12.758057 26.52124,14.026611 17.039795,14.026611 ZM29.70166,24.156006 C29.669434,24.14502 26.10022,22.94751 17.039795,22.94751 C8.133301,22.94751 4.157715,24.082275 4.1186523,24.093506 C4.1186523,24.093506 3.5513916,22.184082 3.5513916,22.184082 C3.7200928,22.133545 7.7893066,20.955566 17.039795,20.955566 C26.52124,20.955566 30.216064,22.224121 30.368286,22.278809 C30.368286,22.278809 29.70166,24.156006 29.70166,24.156006 ZM18.006592,32.044678 C18.006592,32.044678 16.010498,32.044678 16.010498,32.044678 C16.010498,32.044678 16.010498,2.0351562 16.010498,2.0351562 C16.010498,2.0351562 18.006592,2.0351562 18.006592,2.0351562 C18.006592,2.0351562 18.006592,32.044678 18.006592,32.044678 Z"/>
</svg>