<svg xmlns="http://www.w3.org/2000/svg"
 xmlns:xlink="http://www.w3.org/1999/xlink"
 width="35px" height="35px"  viewBox="0 0 35 35">
<path fill-rule="evenodd"  fill="#ffffff"
 d="M17.000061,1.0014648 C25.83667,1.0014648 33.00006,8.164551 33.00006,17.00122 C33.00006,25.838135 25.83667,33.00122 17.000061,33.00122 C8.163513,33.00122 1.0001221,25.838135 1.0001221,17.00122 C1.0001221,8.164551 8.163513,1.0014648 17.000061,1.0014648 ZM22.522888,7.9987793 C22.522888,7.9987793 11.477173,7.9987793 11.477173,7.9987793 C9.558472,7.9987793 7.9975586,9.559814 7.9975586,11.478516 C7.9975586,11.478516 7.9975586,15.152832 7.9975586,15.152832 C7.9975586,15.152832 7.9975586,22.524658 7.9975586,22.524658 C7.9975586,24.44336 9.558472,26.003418 11.477173,26.003418 C11.477173,26.003418 22.522888,26.003418 22.522888,26.003418 C24.441711,26.003418 26.002563,24.44336 26.002563,22.524658 C26.002563,22.524658 26.002563,15.152832 26.002563,15.152832 C26.002563,15.152832 26.002563,11.478516 26.002563,11.478516 C26.002563,9.559814 24.441711,7.9987793 22.522888,7.9987793 ZM23.618652,10.01123 C23.618652,10.01123 24.012451,10.01001 24.012451,10.01001 C24.012451,10.01001 24.012451,10.397949 24.012451,10.397949 C24.012451,10.397949 24.012451,12.999756 24.012451,12.999756 C24.012451,12.999756 21.00232,13.008545 21.00232,13.008545 C21.00232,13.008545 20.992004,10.019531 20.992004,10.019531 C20.992004,10.019531 23.618652,10.01123 23.618652,10.01123 ZM17.000061,13.989014 C19.496521,13.989014 20.012512,16.333496 20.012512,17.00122 C20.012512,18.661133 18.6604,20.012695 17.000061,20.012695 C15.339233,20.012695 13.987976,18.661133 13.987976,17.00122 C13.987976,16.333496 14.503296,13.989014 17.000061,13.989014 ZM24.029602,22.305176 C24.029602,23.25708 23.255737,24.03003 22.3042,24.03003 C22.3042,24.03003 11.664612,24.03003 11.664612,24.03003 C10.713135,24.03003 9.939331,23.25708 9.939331,22.305176 C9.939331,22.305176 9.939331,14.996582 9.939331,14.996582 C9.939331,14.996582 12.439514,14.996582 12.439514,14.996582 C12.207397,15.568359 12.076965,16.347656 12.076965,17.00122 C12.076965,19.715088 14.285217,21.924805 17.000061,21.924805 C19.715088,21.924805 21.923096,19.715088 21.923096,17.00122 C21.923096,16.347656 21.791931,15.568359 21.559998,14.996582 C21.559998,14.996582 24.029602,14.996582 24.029602,14.996582 C24.029602,14.996582 24.029602,22.305176 24.029602,22.305176 Z"/>
</svg>