<svg xmlns="http://www.w3.org/2000/svg"
 xmlns:xlink="http://www.w3.org/1999/xlink"
 width="125px" height="35px"  viewBox="0 0 125 35">
<path fill-rule="evenodd"  fill="#ffffff"
 d="M4.000122,1.0004883 C4.000122,1.0004883 30.000122,1.0004883 30.000122,1.0004883 C31.656982,1.0004883 33.000183,2.34375 33.000183,3.999878 C33.000183,3.999878 33.000183,24.000366 33.000183,24.000366 C33.000183,25.656616 31.656982,27.000366 30.000122,27.000366 C30.000122,27.000366 4.000122,27.000366 4.000122,27.000366 C2.3432617,27.000366 1.000061,25.656616 1.000061,24.000366 C1.000061,24.000366 1.000061,3.999878 1.000061,3.999878 C1.000061,2.34375 2.3432617,1.0004883 4.000122,1.0004883 ZM5.000122,3.0006104 C5.000122,3.0006104 29.000244,3.0006104 29.000244,3.0006104 C30.104675,3.0006104 31.000061,3.8961182 31.000061,5.0010986 C31.000061,5.0010986 31.000061,23.00061 31.000061,23.00061 C31.000061,24.105225 30.104675,25.000732 29.000244,25.000732 C29.000244,25.000732 5.000122,25.000732 5.000122,25.000732 C3.8955688,25.000732 3.000061,24.105225 3.000061,23.00061 C3.000061,23.00061 3.000061,5.0010986 3.000061,5.0010986 C3.000061,3.8961182 3.8955688,3.0006104 5.000122,3.0006104 ZM3.000061,20.000732 C3.000061,20.000732 31.000061,20.000732 31.000061,20.000732 C31.000061,20.000732 31.000061,22.000366 31.000061,22.000366 C31.000061,22.000366 3.000061,22.000366 3.000061,22.000366 C3.000061,22.000366 3.000061,20.000732 3.000061,20.000732 ZM11.000183,31.000488 C11.000183,31.000488 23.000183,31.000488 23.000183,31.000488 C23.552368,31.000488 24.000061,31.448242 24.000061,32.000366 C24.000061,32.552856 23.552368,33.000122 23.000183,33.000122 C23.000183,33.000122 11.000183,33.000122 11.000183,33.000122 C10.447876,33.000122 10.000061,32.552856 10.000061,32.000366 C10.000061,31.448242 10.447876,31.000488 11.000183,31.000488 ZM12.000122,27.000366 C12.000122,27.000366 22.000122,27.000366 22.000122,27.000366 C22.000122,27.000366 22.000122,31.000488 22.000122,31.000488 C22.000122,31.000488 12.000122,31.000488 12.000122,31.000488 C12.000122,31.000488 12.000122,27.000366 12.000122,27.000366 ZM14.000122,27.000366 C14.000122,27.000366 20.0,27.000366 20.0,27.000366 C20.0,27.000366 20.0,31.000488 20.0,31.000488 C20.0,31.000488 14.000122,31.000488 14.000122,31.000488 C14.000122,31.000488 14.000122,27.000366 14.000122,27.000366 ZM56.000183,1.0004883 C56.000183,1.0004883 72.0,1.0004883 72.0,1.0004883 C73.65704,1.0004883 75.00012,2.34375 75.00012,3.999878 C75.00012,3.999878 75.00012,30.000732 75.00012,30.000732 C75.00012,31.657349 73.65704,33.000122 72.0,33.000122 C72.0,33.000122 56.000183,33.000122 56.000183,33.000122 C54.34326,33.000122 53.000183,31.657349 53.000183,30.000732 C53.000183,30.000732 53.000183,3.999878 53.000183,3.999878 C53.000183,2.34375 54.34326,1.0004883 56.000183,1.0004883 ZM57.000122,3.0006104 C57.000122,3.0006104 71.00018,3.0006104 71.00018,3.0006104 C72.10474,3.0006104 73.00012,3.8961182 73.00012,5.0010986 C73.00012,5.0010986 73.00012,29.0 73.00012,29.0 C73.00012,30.10498 72.10474,31.000488 71.00018,31.000488 C71.00018,31.000488 57.000122,31.000488 57.000122,31.000488 C55.89557,31.000488 55.00006,30.10498 55.00006,29.0 C55.00006,29.0 55.00006,5.0010986 55.00006,5.0010986 C55.00006,3.8961182 55.89557,3.0006104 57.000122,3.0006104 ZM64.00012,25.000732 C65.10474,25.000732 66.00012,25.89624 66.00012,27.000366 C66.00012,28.104858 65.10474,29.0 64.00012,29.0 C62.89557,29.0 62.00006,28.104858 62.00006,27.000366 C62.00006,25.89624 62.89557,25.000732 64.00012,25.000732 ZM62.00006,5.0010986 C62.00006,5.0010986 66.00012,5.0010986 66.00012,5.0010986 C66.55243,5.0010986 67.00012,5.447998 67.00012,6.0009766 C67.00012,6.5529785 66.55243,7.0007324 66.00012,7.0007324 C66.00012,7.0007324 62.00006,7.0007324 62.00006,7.0007324 C61.447754,7.0007324 61.000183,6.5529785 61.000183,6.0009766 C61.000183,5.447998 61.447754,5.0010986 62.00006,5.0010986 ZM98.00018,1.0004883 C98.00018,1.0004883 120.000244,1.0004883 120.000244,1.0004883 C121.65698,1.0004883 123.00006,2.34375 123.00006,3.999878 C123.00006,3.999878 123.00006,30.000732 123.00006,30.000732 C123.00006,31.657349 121.65698,33.000122 120.000244,33.000122 C120.000244,33.000122 98.00018,33.000122 98.00018,33.000122 C96.34332,33.000122 95.00012,31.657349 95.00012,30.000732 C95.00012,30.000732 95.00012,3.999878 95.00012,3.999878 C95.00012,2.34375 96.34332,1.0004883 98.00018,1.0004883 ZM99.00006,3.0006104 C99.00006,3.0006104 119.00012,3.0006104 119.00012,3.0006104 C120.104675,3.0006104 121.00006,3.8961182 121.00006,5.0010986 C121.00006,5.0010986 121.00006,29.0 121.00006,29.0 C121.00006,30.10498 120.104675,31.000488 119.00012,31.000488 C119.00012,31.000488 99.00006,31.000488 99.00006,31.000488 C97.89551,31.000488 97.00012,30.10498 97.00012,29.0 C97.00012,29.0 97.00012,5.0010986 97.00012,5.0010986 C97.00012,3.8961182 97.89551,3.0006104 99.00006,3.0006104 ZM109.00012,25.000732 C110.104614,25.000732 111.00012,25.89624 111.00012,27.000366 C111.00012,28.104858 110.104614,29.0 109.00012,29.0 C107.89545,29.0 107.00006,28.104858 107.00006,27.000366 C107.00006,25.89624 107.89545,25.000732 109.00012,25.000732 ZM107.00006,5.0010986 C107.00006,5.0010986 111.00012,5.0010986 111.00012,5.0010986 C111.55243,5.0010986 112.00012,5.447998 112.00012,6.0009766 C112.00012,6.5529785 111.55243,7.0007324 111.00012,7.0007324 C111.00012,7.0007324 107.00006,7.0007324 107.00006,7.0007324 C106.447876,7.0007324 106.00006,6.5529785 106.00006,6.0009766 C106.00006,5.447998 106.447876,5.0010986 107.00006,5.0010986 Z"/>
</svg>