<svg xmlns="http://www.w3.org/2000/svg"
 xmlns:xlink="http://www.w3.org/1999/xlink"
 width="67px" height="67px"  viewBox="0 0 67 67">
<path fill-rule="evenodd"  fill="#ccd0d2"
 d="M61.03128,26.942566 C61.03128,26.942566 55.898376,25.804688 55.898376,25.804688 C55.498047,24.52246 54.97461,23.298584 54.372986,22.121521 C54.372986,22.121521 57.15045,17.49414 57.15045,17.49414 C58.187653,15.836548 58.711,13.399231 57.15045,11.836853 C57.15045,11.836853 54.320465,9.008667 54.320465,9.008667 C52.759827,7.447632 50.122986,7.727356 48.53134,8.831909 C48.53134,8.831909 44.029236,11.700623 44.029236,11.700623 C42.86139,11.093933 41.640625,10.575562 40.371033,10.165161 C40.371033,10.165161 39.21884,4.970215 39.21884,4.970215 C38.87506,3.0634766 37.209015,1.0009766 35.00009,1.0009766 C35.00009,1.0009766 31.00003,1.0009766 31.00003,1.0009766 C28.791077,1.0009766 27.437592,3.0939941 27.000092,5.0011597 C27.000092,5.0011597 25.716858,10.133728 25.716858,10.133728 C24.36142,10.565552 23.0607,11.118042 21.821167,11.77124 C21.821167,11.77124 17.206116,8.831909 17.206116,8.831909 C15.615295,7.727356 12.978577,7.447632 11.417114,9.008667 C11.417114,9.008667 8.587921,11.836853 8.587921,11.836853 C7.026367,13.399231 7.549835,15.836548 8.587921,17.49414 C8.587921,17.49414 11.509827,22.364319 11.509827,22.364319 C10.961884,23.468445 10.475739,24.609497 10.100586,25.804688 C10.100586,25.804688 4.9688416,26.942566 4.9688416,26.942566 C3.0625,27.286438 1.0001526,28.95221 1.0001526,31.161377 C1.0001526,31.161377 1.0001526,35.16205 1.0001526,35.16205 C1.0001526,37.369385 3.0939636,38.724 5.0000916,39.161316 C5.0000916,39.161316 10.197296,40.4599 10.197296,40.4599 C10.556763,41.56134 11.004913,42.62079 11.513733,43.64569 C11.513733,43.64569 8.587921,48.52179 8.587921,48.52179 C7.5508423,50.177063 7.027405,52.61444 8.587921,54.177246 C8.587921,54.177246 11.41803,57.004578 11.41803,57.004578 C12.978577,58.56781 15.615295,58.286316 17.207031,57.182617 C17.207031,57.182617 21.832062,54.235107 21.832062,54.235107 C23.079224,54.893738 24.38684,55.45038 25.751099,55.882202 C25.751099,55.882202 27.03122,61.001526 27.03122,61.001526 C27.468842,62.90735 28.822205,65.00128 31.031158,65.00128 C31.031158,65.00128 35.03122,65.00128 35.03122,65.00128 C37.240265,65.00128 38.90631,62.93878 39.24997,61.03253 C39.24997,61.03253 40.404205,55.823425 40.404205,55.823425 C41.660217,55.416687 42.865265,54.90515 44.019623,54.307556 C44.019623,54.307556 48.53134,57.182617 48.53134,57.182617 C50.122986,58.286316 52.759827,58.56781 54.320465,57.004578 C54.320465,57.004578 57.15045,54.177246 57.15045,54.177246 C58.711,52.61444 58.187653,50.177063 57.15045,48.52179 C57.15045,48.52179 54.371033,43.888 54.371033,43.888 C54.929626,42.79071 55.414062,41.64789 55.802917,40.4599 C55.802917,40.4599 61.000153,39.161316 61.000153,39.161316 C62.90628,38.724 65.00006,37.369385 65.00006,35.16205 C65.00006,35.16205 65.00006,31.161377 65.00006,31.161377 C65.00006,28.95221 62.937622,27.286438 61.03128,26.942566 ZM61.001984,34.87915 C60.83203,35.000305 60.511932,35.168823 60.10544,35.262695 C60.10544,35.262695 52.689453,37.114258 52.689453,37.114258 C52.689453,37.114258 52.002014,39.21643 52.002014,39.21643 C51.691406,40.16339 51.289032,41.12451 50.80667,42.072815 C50.80667,42.072815 49.802795,44.04608 49.802795,44.04608 C49.802795,44.04608 53.720886,50.5802 53.720886,50.5802 C53.970825,50.979675 54.0878,51.336792 54.123047,51.548157 C54.123047,51.548157 51.49228,54.174072 51.49228,54.174072 C51.23822,54.095276 50.94925,53.990967 50.81067,53.895752 C50.81067,53.895752 44.226654,49.696533 44.226654,49.696533 C44.226654,49.696533 42.179657,50.75464 42.179657,50.75464 C41.193512,51.26709 40.18164,51.691162 39.173737,52.01593 C39.173737,52.01593 36.994324,52.721924 36.994324,52.721924 C36.994324,52.721924 35.345825,60.167053 35.345825,60.167053 C35.269592,60.565613 35.05661,60.885864 34.911377,61.001526 C34.911377,61.001526 31.311646,61.001526 31.311646,61.001526 C31.189423,60.83026 31.02246,60.510986 30.929657,60.106506 C30.929657,60.106506 29.088867,52.743347 29.088867,52.743347 C29.088867,52.743347 26.9581,52.06787 26.9581,52.06787 C25.860382,51.72168 24.764587,51.261597 23.699158,50.697693 C23.699158,50.697693 21.64264,49.612244 21.64264,49.612244 C21.64264,49.612244 15.057739,53.81012 15.057739,53.81012 C14.789124,53.990967 14.500977,54.095276 14.239349,54.095276 C14.239349,54.095276 11.616272,51.542236 11.616272,51.542236 C11.651398,51.334473 11.759766,50.99286 11.978455,50.643982 C11.978455,50.643982 16.069397,43.82788 16.069397,43.82788 C16.069397,43.82788 15.096741,41.86786 15.096741,41.86786 C14.6397705,40.94641 14.280334,40.07959 14.000061,39.219604 C14.000061,39.219604 13.31366,37.11609 13.31366,37.11609 C13.31366,37.11609 5.9697266,35.27997 5.9697266,35.27997 C5.5078735,35.174744 5.1737976,35.002563 5.0000916,34.880066 C5.0000916,34.880066 5.0000916,31.161377 5.0000916,31.161377 C5.002014,31.161804 5.004883,31.163635 5.008789,31.163635 C5.076294,31.163635 5.404297,30.928589 5.678833,30.879395 C5.678833,30.879395 13.223694,29.207764 13.223694,29.207764 C13.223694,29.207764 13.916992,27.003113 13.916992,27.003113 C14.19931,26.104858 14.584045,25.168823 15.092743,24.14215 C15.092743,24.14215 16.06549,22.181213 16.06549,22.181213 C16.06549,22.181213 12.017609,15.437073 12.017609,15.437073 C11.766632,15.034424 11.650482,14.67688 11.615234,14.466919 C11.615234,14.466919 14.245178,11.838196 14.245178,11.838196 C14.500061,11.920227 14.78717,12.022705 14.924866,12.118774 C14.924866,12.118774 21.631897,16.394104 21.631897,16.394104 C21.631897,16.394104 23.686584,15.309998 23.686584,15.309998 C24.741272,14.7543335 25.832,14.295166 26.930634,13.945374 C26.930634,13.945374 29.05658,13.268494 29.05658,13.268494 C29.05658,13.268494 30.880798,5.9709473 30.880798,5.9709473 C30.987549,5.5099487 31.157288,5.1760864 31.28122,5.0011597 C31.28122,5.0011597 35.00009,5.0011597 35.00009,5.0011597 C34.972626,5.0421753 35.230347,5.390625 35.283325,5.6793823 C35.283325,5.6793823 36.96286,13.26709 36.96286,13.26709 C36.96286,13.26709 39.140686,13.971741 39.140686,13.971741 C40.162292,14.302002 41.187683,14.731995 42.185608,15.250366 C42.185608,15.250366 44.23236,16.314392 44.23236,16.314392 C44.23236,16.314392 50.679626,12.206726 50.679626,12.206726 C50.94925,12.022705 51.23822,11.920227 51.498108,11.920227 C51.498108,11.920227 54.123047,14.471008 54.123047,14.471008 C54.0878,14.678711 53.978638,15.020752 53.759827,15.372437 C53.759827,15.372437 49.800842,21.964844 49.800842,21.964844 C49.800842,21.964844 50.81067,23.940796 50.81067,23.940796 C51.355408,25.006653 51.771393,26.006042 52.080048,26.99768 C52.080048,26.99768 52.771393,29.20636 52.771393,29.20636 C52.771393,29.20636 60.164032,30.84845 60.164032,30.84845 C60.61151,30.930908 60.958954,31.188232 61.033203,31.32898 C61.033203,31.32898 61.001984,34.87915 61.001984,34.87915 ZM33.02713,45.018982 C26.385437,45.018982 20.980957,39.62726 20.980957,33.00067 C20.980957,26.374084 26.385437,20.981445 33.02713,20.981445 C39.668823,20.981445 45.073395,26.374084 45.073395,33.00067 C45.073395,39.62726 39.668823,45.018982 33.02713,45.018982 ZM32.999756,25.001648 C28.588318,25.001648 24.999786,28.589172 24.999786,33.00067 C24.999786,37.41266 28.588318,41.00061 32.999756,41.00061 C37.411255,41.00061 40.999878,37.41266 40.999878,33.00067 C40.999878,28.589172 37.411255,25.001648 32.999756,25.001648 Z"/>
</svg>