<svg xmlns="http://www.w3.org/2000/svg"
 xmlns:xlink="http://www.w3.org/1999/xlink"
 width="35px" height="35px"  viewBox="0 0 35 35">
<path fill-rule="evenodd"  fill="#ffffff"
 d="M17.000122,1.0014648 C25.836609,1.0014648 33.000122,8.165039 33.000122,17.00122 C33.000122,25.838135 25.836609,33.00122 17.000122,33.00122 C8.163574,33.00122 1.0001831,25.838135 1.0001831,17.00122 C1.0001831,8.165039 8.163574,1.0014648 17.000122,1.0014648 ZM27.002747,11.780762 C26.303833,12.082031 25.552185,12.284668 24.763123,12.376221 C25.568481,11.908447 26.186401,11.166748 26.477661,10.282227 C25.724182,10.716797 24.890015,11.031006 24.00177,11.201416 C23.29065,10.46582 22.2771,10.006348 21.155823,10.006348 C19.00238,10.006348 17.256714,11.700684 17.256714,13.790039 C17.256714,14.08667 17.291138,14.375732 17.357666,14.652832 C14.117126,14.494629 11.243774,12.98877 9.320679,10.698486 C8.985291,11.257568 8.79303,11.907471 8.79303,12.601318 C8.79303,13.913574 9.481262,15.072754 10.527466,15.751465 C9.88855,15.731934 9.286926,15.561523 8.761414,15.277344 C8.761108,15.293213 8.761108,15.308594 8.761108,15.325439 C8.761108,17.158447 10.105103,18.687988 11.888977,19.035645 C11.561768,19.122559 11.217224,19.168945 10.861511,19.168945 C10.610107,19.168945 10.366028,19.14502 10.127869,19.10083 C10.624268,20.604248 12.064209,21.697998 13.77002,21.728516 C12.435669,22.743896 10.754639,23.349121 8.927612,23.349121 C8.612976,23.349121 8.302734,23.330566 7.9976807,23.295898 C9.723389,24.369385 11.772705,24.996826 13.97467,24.996826 C21.146667,24.996826 25.068237,19.229736 25.068237,14.229248 C25.068237,14.065186 25.06482,13.901123 25.057373,13.739502 C25.81897,13.206543 26.480347,12.539795 27.002747,11.780762 Z"/>
</svg>