<svg xmlns="http://www.w3.org/2000/svg"
 xmlns:xlink="http://www.w3.org/1999/xlink"
 width="68px" height="57px"  viewBox="0 0 68 57">
<path fill-rule="evenodd"  fill="#ffffff"
 d="M62.00006,30.01709 C62.00006,30.01709 M62.00006,26.017334 C62.00006,26.017334 42.316406,26.017334 42.316406,26.017334 C42.226562,30.817383 38.822205,34.12256 34.000122,34.12256 C29.177795,34.12256 25.835938,30.817383 25.746216,26.017334 C25.746216,26.017334 6.000122,26.017334 6.000122,26.017334 C3.7910156,26.017334 2.000061,27.807861 2.000061,30.01709 C2.000061,30.01709 2.000061,51.973877 2.000061,51.973877 C2.000061,54.183105 3.7910156,55.97412 6.000122,55.97412 C6.000122,55.97412 62.00006,55.97412 62.00006,55.97412 C64.20911,55.97412 66.0,54.183105 66.0,51.973877 C66.0,51.973877 66.0,30.01709 66.0,30.01709 C66.0,27.807861 64.20911,26.017334 62.00006,26.017334 C62.00006,26.017334 62.00006,26.017334 62.00006,26.017334 ZM64.00586,31.345215 C63.12903,31.345215 62.32422,30.764893 62.080017,29.878174 C62.080017,29.878174 55.14264,5.9016113 55.14264,5.9016113 C55.14264,5.9016113 12.244202,5.9016113 12.244202,5.9016113 C12.244202,5.9016113 5.9259033,28.56128 5.9259033,28.56128 C5.640625,29.628174 4.545105,30.262695 3.4786377,29.981445 C2.4122314,29.696045 1.7755127,28.602783 2.0586548,27.534668 C2.0586548,27.534668 8.771484,3.3876953 8.771484,3.3876953 C9.005859,2.5109863 9.798828,1.9013672 10.705078,1.9013672 C10.705078,1.9013672 56.664,1.9013672 56.664,1.9013672 C57.562683,1.9013672 58.351685,2.5007324 58.591858,3.3686523 C58.591858,3.3686523 65.93567,28.811768 65.93567,28.811768 C66.23035,29.87622 65.60547,30.977783 64.54108,31.27246 C64.36322,31.321533 64.183716,31.345215 64.00586,31.345215 Z"/>
</svg>