<svg xmlns="http://www.w3.org/2000/svg"
 xmlns:xlink="http://www.w3.org/1999/xlink"
 width="68px" height="68px"  viewBox="0 0 68 68">
<path fill-rule="evenodd"  fill="#ffffff"
 d="M33.5,1.0001221 C51.44931,1.0001221 66.00006,15.551697 66.00006,33.500916 C66.00006,51.450073 51.44931,66.000244 33.5,66.000244 C15.550781,66.000244 1.0001068,51.450073 1.0001068,33.500916 C1.0001068,15.551697 15.550781,1.0001221 33.5,1.0001221 ZM33.5,5.0006104 C49.240158,5.0006104 62.00006,17.760925 62.00006,33.500183 C62.00006,49.240112 49.240158,61.999695 33.5,61.999695 C17.759918,61.999695 5.0000916,49.240112 5.0000916,33.500183 C5.0000916,17.760925 17.759918,5.0006104 33.5,5.0006104 ZM32.0,21.00061 C32.0,21.00061 36.0,21.00061 36.0,21.00061 C37.104645,21.00061 38.000076,21.895874 38.000076,23.000488 C38.000076,23.000488 38.000076,34.001038 38.000076,34.001038 C38.000076,35.10565 37.104645,36.000244 36.0,36.000244 C36.0,36.000244 32.0,36.000244 32.0,36.000244 C30.895508,36.000244 30.000092,35.10565 30.000092,34.001038 C30.000092,34.001038 30.000092,23.000488 30.000092,23.000488 C30.000092,21.895874 30.895508,21.00061 32.0,21.00061 ZM24.914337,32.000427 C23.208847,32.000427 22.511108,33.17627 23.36383,34.613586 C23.36383,34.613586 32.449066,45.924072 32.449066,45.924072 C33.301743,47.360657 34.697235,47.360657 35.549896,45.924072 C35.549896,45.924072 44.635056,34.613586 44.635056,34.613586 C45.48787,33.17627 44.790176,32.000427 43.08458,32.000427 C43.08458,32.000427 24.914337,32.000427 24.914337,32.000427 Z"/>
</svg>