<svg xmlns="http://www.w3.org/2000/svg"
 xmlns:xlink="http://www.w3.org/1999/xlink"
 width="34px" height="36px"  viewBox="0 0 34 36">
<path fill-rule="evenodd"  fill="#e2574c"
 d="M31.058105,27.736328 C31.058105,27.702637 M32.995605,27.736328 C32.995605,28.26416 32.83551,28.82373 32.496643,29.30957 C32.46338,29.356445 29.113892,34.04834 27.17334,33.98584 C21.722168,33.81299 15.315857,28.53125 10.901855,24.131348 C6.487915,19.730957 1.1890564,13.343262 1.0143127,7.8867188 C1.0143127,7.8867188 1.0143127,7.841797 1.0143127,7.841797 C1.0143127,5.9311523 5.6605835,2.5732422 5.706482,2.5410156 C6.9692383,1.6601562 8.359009,1.9814453 8.923462,2.7836914 C9.26709,3.2714844 12.828613,8.611816 13.230103,9.26709 C13.404846,9.552246 13.490662,9.899902 13.490662,10.27832 C13.490662,10.766113 13.348145,11.306641 13.069824,11.833984 C12.798279,12.348633 11.90979,13.905762 11.473145,14.666504 C11.945923,15.337891 13.156738,16.914062 15.650024,19.39795 C18.124512,21.86621 19.718384,23.084473 20.39508,23.558594 C21.158752,23.124023 22.720215,22.239746 23.233948,21.970703 C24.202637,21.46045 25.170471,21.402832 25.822815,21.816895 C26.43805,22.205566 31.754395,25.7417 32.260254,26.106934 C32.737915,26.450195 32.995605,27.066895 32.995605,27.736328 C32.995605,27.736328 32.995605,27.736328 32.995605,27.736328 Z"/>
</svg>