<svg xmlns="http://www.w3.org/2000/svg"
 xmlns:xlink="http://www.w3.org/1999/xlink"
 width="35px" height="35px"  viewBox="0 0 35 35">
<path fill-rule="evenodd"  fill="#ccd0d2"
 d="M31.015633,13.97168 C31.015633,13.97168 28.449295,13.402832 28.449295,13.402832 C28.249023,12.762695 27.987297,12.149902 27.686546,11.561035 C27.686546,11.561035 29.075172,9.246582 29.075172,9.246582 C29.593819,8.418945 29.855545,7.2001953 29.075172,6.4189453 C29.075172,6.4189453 27.660225,5.004883 27.660225,5.004883 C26.879852,4.223633 25.561493,4.364746 24.76567,4.916992 C24.76567,4.916992 22.514618,6.3500977 22.514618,6.3500977 C21.93074,6.0473633 21.320312,5.788086 20.685509,5.583008 C20.685509,5.583008 20.109413,2.9853516 20.109413,2.9853516 C19.937523,2.0317383 19.104507,1.0009766 18.000038,1.0009766 C18.000038,1.0009766 16.000069,1.0009766 16.000069,1.0009766 C14.895485,1.0009766 14.218796,2.0478516 13.999985,3.0014648 C13.999985,3.0014648 13.358429,5.567871 13.358429,5.567871 C12.68071,5.782715 12.030342,6.0595703 11.410645,6.3867188 C11.410645,6.3867188 9.103058,4.916992 9.103058,4.916992 C8.3076935,4.364746 6.989334,4.223633 6.2085037,5.004883 C6.2085037,5.004883 4.794014,6.4189453 4.794014,6.4189453 C4.0131836,7.2001953 4.27491,8.418945 4.794014,9.246582 C4.794014,9.246582 6.2549667,11.682617 6.2549667,11.682617 C5.980995,12.234863 5.737808,12.805664 5.550354,13.402832 C5.550354,13.402832 2.9844742,13.97168 2.9844742,13.97168 C2.0312958,14.143555 1.0000687,14.9765625 1.0000687,16.081055 C1.0000687,16.081055 1.0000687,18.081543 1.0000687,18.081543 C1.0000687,19.185547 2.0469742,19.862305 3.0000381,20.081055 C3.0000381,20.081055 5.598648,20.72998 5.598648,20.72998 C5.7783203,21.280762 6.00251,21.810059 6.256912,22.322754 C6.256912,22.322754 4.794014,24.760254 4.794014,24.760254 C4.2753677,25.588379 4.0136414,26.808105 4.794014,27.588379 C4.794014,27.588379 6.2089615,29.003418 6.2089615,29.003418 C6.989334,29.784668 8.3076935,29.644043 9.103516,29.091309 C9.103516,29.091309 11.416023,27.618164 11.416023,27.618164 C12.039612,27.947754 12.693413,28.225586 13.375481,28.441406 C13.375481,28.441406 14.015663,31.000488 14.015663,31.000488 C14.234474,31.953613 14.911163,33.001465 16.015633,33.001465 C16.015633,33.001465 18.015602,33.001465 18.015602,33.001465 C19.120186,33.001465 19.953201,31.969727 20.124977,31.016113 C20.124977,31.016113 20.702103,28.411621 20.702103,28.411621 C21.330154,28.208496 21.932571,27.953613 22.509811,27.653809 C22.509811,27.653809 24.76567,29.091309 24.76567,29.091309 C25.561493,29.644043 26.879852,29.784668 27.660225,29.003418 C27.660225,29.003418 29.075172,27.588379 29.075172,27.588379 C29.855545,26.808105 29.593819,25.588379 29.075172,24.760254 C29.075172,24.760254 27.685516,22.444336 27.685516,22.444336 C27.964867,21.895508 28.207024,21.324219 28.401459,20.72998 C28.401459,20.72998 31.000069,20.081055 31.000069,20.081055 C31.953133,19.862305 33.00004,19.185547 33.00004,18.081543 C33.00004,18.081543 33.00004,16.081055 33.00004,16.081055 C33.00004,14.9765625 31.968811,14.143555 31.015633,13.97168 ZM31.000984,17.94043 C30.916069,18.0 30.755966,18.08496 30.55272,18.131836 C30.55272,18.131836 26.844719,19.057129 26.844719,19.057129 C26.844719,19.057129 26.501053,20.108398 26.501053,20.108398 C26.345757,20.582031 26.14457,21.062012 25.903328,21.536621 C25.903328,21.536621 25.40139,22.52246 25.40139,22.52246 C25.40139,22.52246 27.36039,25.79004 27.36039,25.79004 C27.485474,25.989746 27.543953,26.168945 27.561462,26.274414 C27.561462,26.274414 26.246193,27.588379 26.246193,27.588379 C26.119164,27.547363 25.974625,27.496094 25.905388,27.447266 C25.905388,27.447266 22.613266,25.349121 22.613266,25.349121 C22.613266,25.349121 21.58982,25.87793 21.58982,25.87793 C21.096695,26.13379 20.590866,26.346191 20.086983,26.50879 C20.086983,26.50879 18.997162,26.861328 18.997162,26.861328 C18.997162,26.861328 18.172958,30.583496 18.172958,30.583496 C18.13485,30.783691 18.028305,30.94336 17.955635,31.000488 C17.955635,31.000488 16.155823,31.000488 16.155823,31.000488 C16.094711,30.916016 16.011284,30.75586 15.964821,30.55371 C15.964821,30.55371 15.044487,26.871582 15.044487,26.871582 C15.044487,26.871582 13.979042,26.533691 13.979042,26.533691 C13.430183,26.36084 12.882355,26.13086 12.349632,25.849121 C12.349632,25.849121 11.321266,25.307129 11.321266,25.307129 C11.321266,25.307129 8.028801,27.404785 8.028801,27.404785 C7.894562,27.496094 7.7504807,27.547363 7.6196747,27.547363 C7.6196747,27.547363 6.308182,26.271484 6.308182,26.271484 C6.325691,26.167969 6.379936,25.99707 6.4893417,25.821777 C6.4893417,25.821777 8.534744,22.413574 8.534744,22.413574 C8.534744,22.413574 8.04837,21.43457 8.04837,21.43457 C7.819832,20.973145 7.6401596,20.53955 7.500084,20.110352 C7.500084,20.110352 7.156761,19.058594 7.156761,19.058594 C7.156761,19.058594 3.4849243,18.140137 3.4849243,18.140137 C3.2539825,18.088379 3.0870132,18.001465 3.0000381,17.94043 C3.0000381,17.94043 3.0000381,16.081055 3.0000381,16.081055 C3.001068,16.081543 3.0024414,16.082031 3.004387,16.082031 C3.038147,16.082031 3.2021408,15.963867 3.3393555,15.939941 C3.3393555,15.939941 7.1119003,15.104492 7.1119003,15.104492 C7.1119003,15.104492 7.458542,14.000977 7.458542,14.000977 C7.5996475,13.552246 7.7920227,13.083984 8.046425,12.571777 C8.046425,12.571777 8.532799,11.591309 8.532799,11.591309 C8.532799,11.591309 6.5087967,8.21875 6.5087967,8.21875 C6.3833694,8.01709 6.3252335,7.838379 6.307724,7.734375 C6.307724,7.734375 7.6225357,6.4194336 7.6225357,6.4194336 C7.750023,6.459961 7.893532,6.5117188 7.962425,6.5595703 C7.962425,6.5595703 11.315887,8.696777 11.315887,8.696777 C11.315887,8.696777 12.343338,8.155273 12.343338,8.155273 C12.870682,7.8774414 13.415993,7.6484375 13.965309,7.4726562 C13.965309,7.4726562 15.028351,7.1342773 15.028351,7.1342773 C15.028351,7.1342773 15.940445,3.4858398 15.940445,3.4858398 C15.993774,3.2539062 16.07869,3.0878906 16.140602,3.0014648 C16.140602,3.0014648 18.000038,3.0014648 18.000038,3.0014648 C17.986305,3.0214844 18.11528,3.1953125 18.141602,3.3398438 C18.141602,3.3398438 18.981369,7.1342773 18.981369,7.1342773 C18.981369,7.1342773 20.070274,7.486328 20.070274,7.486328 C20.581139,7.651367 21.093834,7.866211 21.59291,8.125977 C21.59291,8.125977 22.616241,8.657227 22.616241,8.657227 C22.616241,8.657227 25.839813,6.604004 25.839813,6.604004 C25.974625,6.5117188 26.119164,6.459961 26.249054,6.459961 C26.249054,6.459961 27.561462,7.736328 27.561462,7.736328 C27.543953,7.8398438 27.489365,8.011719 27.37996,8.186523 C27.37996,8.186523 25.400475,11.48291 25.400475,11.48291 C25.400475,11.48291 25.905388,12.471191 25.905388,12.471191 C26.177757,13.003418 26.385696,13.503418 26.539963,13.999023 C26.539963,13.999023 26.885689,15.104004 26.885689,15.104004 C26.885689,15.104004 30.582016,15.924316 30.582016,15.924316 C30.805748,15.965332 30.979584,16.094238 31.016663,16.16504 C31.016663,16.16504 31.000984,17.94043 31.000984,17.94043 ZM17.013557,23.010254 C13.692711,23.010254 10.9904175,20.314453 10.9904175,17.000488 C10.9904175,13.687012 13.692711,10.991211 17.013557,10.991211 C20.334404,10.991211 23.036697,13.687012 23.036697,17.000488 C23.036697,20.314453 20.334404,23.010254 17.013557,23.010254 ZM16.999825,13.000977 C14.794205,13.000977 12.999886,14.794922 12.999886,17.000488 C12.999886,19.206543 14.794205,21.000488 16.999825,21.000488 C19.205673,21.000488 20.999992,19.206543 20.999992,17.000488 C20.999992,14.794922 19.205673,13.000977 16.999825,13.000977 Z"/>
</svg>