<svg xmlns="http://www.w3.org/2000/svg"
 xmlns:xlink="http://www.w3.org/1999/xlink"
 width="34px" height="31px"  viewBox="0 0 34 31">
<path fill-rule="evenodd"  fill="#ccd0d2"
 d="M25.110474,26.021973 C25.110474,26.021973 25.110474,26.021973 25.110474,26.021973 C24.558289,26.021973 24.110352,25.574707 24.110352,25.02246 C24.110352,24.469238 24.558289,24.021973 25.110474,24.021973 C25.110474,24.021973 25.39563,24.021973 25.39563,24.021973 C28.81604,24.021973 31.07434,20.224121 31.07434,16.81543 C31.07434,13.069824 27.816528,10.056641 24.102112,9.979492 C24.102112,9.979492 23.38092,9.963867 23.38092,9.963867 C23.38092,9.963867 23.16748,9.274902 23.16748,9.274902 C22.135376,5.9370117 19.903992,3.9799805 15.931763,3.9799805 C10.976105,3.9799805 7.7705994,7.6538086 7.7705994,12.524902 C7.7705994,12.524902 7.7779236,12.536621 7.7779236,12.536621 C7.7779236,12.536621 7.8589478,13.453613 7.8589478,13.453613 C7.8589478,13.453613 6.9513245,13.610352 6.9513245,13.610352 C4.739746,13.989746 2.9765625,16.257812 2.9765625,18.77295 C2.9765625,21.618652 5.1808167,24.021973 7.752533,24.021973 C7.752533,24.021973 8.641724,24.021973 8.641724,24.021973 C9.193909,24.021973 9.641724,24.469238 9.641724,25.02246 C9.641724,25.574707 9.193909,26.021973 8.641724,26.021973 C8.641724,26.021973 7.752533,26.021973 7.752533,26.021973 C4.0968323,26.021973 1.007843,22.702637 1.007843,18.77295 C1.007843,15.563477 3.0133057,12.729004 5.791565,11.840332 C6.138336,6.257324 10.169525,1.9794922 15.931763,1.9794922 C20.460022,1.9794922 23.45819,4.3237305 24.853088,8.024902 C29.375,8.511719 32.99237,12.199707 32.99237,16.81543 C32.99237,21.109375 30.110413,25.887207 25.110474,26.019531 C25.110474,26.019531 25.110474,26.021973 25.110474,26.021973 ZM16.985962,27.673828 C16.985962,27.673828 20.195923,24.1333 20.195923,24.1333 C20.475159,23.841797 20.927307,23.841797 21.206665,24.1333 C21.206665,24.1333 21.458557,24.334473 21.458557,24.334473 C21.737793,24.626953 21.737793,24.97461 21.458557,25.26709 C21.458557,25.26709 17.757385,29.321777 17.757385,29.321777 C17.752502,29.327148 17.75055,29.333008 17.745728,29.33789 C17.745728,29.33789 17.492798,29.603516 17.492798,29.603516 C17.354126,29.75 17.169556,29.82129 16.985962,29.820312 C16.801392,29.82129 16.617798,29.75 16.477173,29.603516 C16.477173,29.603516 16.224243,29.33789 16.224243,29.33789 C16.2193,29.333008 16.218506,29.326172 16.213501,29.321777 C16.213501,29.321777 12.604126,25.329102 12.604126,25.329102 C12.324768,25.03711 12.324768,24.564453 12.604126,24.271484 C12.604126,24.271484 12.85614,24.1333 12.85614,24.1333 C13.135376,23.841797 13.58844,23.90332 13.867798,24.19629 C13.867798,24.19629 16.985962,27.673828 16.985962,27.673828 ZM16.996277,15.492676 C17.548584,15.492676 17.996216,15.939941 17.996216,16.492676 C17.996216,16.492676 17.996216,27.492188 17.996216,27.492188 C17.996216,28.044922 17.548584,28.492676 16.996277,28.492676 C16.44397,28.492676 15.996277,28.044922 15.996277,27.492188 C15.996277,27.492188 15.996277,16.492676 15.996277,16.492676 C15.996277,15.939941 16.44397,15.492676 16.996277,15.492676 Z"/>
</svg>