<svg xmlns="http://www.w3.org/2000/svg"
 xmlns:xlink="http://www.w3.org/1999/xlink"
 width="29px" height="35px"  viewBox="0 0 29 35">
<path fill-rule="evenodd"  fill="#ccd0d2"
 d="M21.000122,14.000977 C20.447357,14.000977 20.0,13.553711 20.0,13.001465 C20.0,13.001465 20.0,9.18457 20.0,9.18457 C20.0,5.716797 17.558655,3.0014648 13.962921,3.0014648 C10.330109,3.0014648 8.000092,5.7753906 8.000092,9.18457 C8.000092,9.18457 8.000092,13.001465 8.000092,13.001465 C8.000092,13.553711 7.5527344,14.000977 7.0000916,14.000977 C6.447357,14.000977 6.000122,13.553711 6.000122,13.001465 C6.000122,13.001465 6.000122,9.18457 6.000122,9.18457 C6.000122,4.671875 9.22757,1.0009766 13.962921,1.0009766 C18.67981,1.0009766 22.000092,4.595703 22.000092,9.18457 C22.000092,9.18457 22.000092,13.001465 22.000092,13.001465 C22.000092,13.553711 21.552734,14.000977 21.000122,14.000977 ZM23.000092,33.001465 C23.000092,33.001465 5.000122,33.001465 5.000122,33.001465 C2.7939453,33.001465 1.000061,31.20752 1.000061,29.001465 C1.000061,29.001465 1.000061,17.000488 1.000061,17.000488 C1.000061,14.794434 2.7939453,13.001465 5.000122,13.001465 C5.000122,13.001465 23.000092,13.001465 23.000092,13.001465 C25.206177,13.001465 27.00003,14.794434 27.00003,17.000488 C27.00003,17.000488 27.00003,29.001465 27.00003,29.001465 C27.00003,31.20752 25.206177,33.001465 23.000092,33.001465 ZM5.000122,15.000977 C3.8976135,15.000977 3.000061,15.8984375 3.000061,17.000488 C3.000061,17.000488 3.000061,29.001465 3.000061,29.001465 C3.000061,30.103027 3.8976135,31.000488 5.000122,31.000488 C5.000122,31.000488 23.000092,31.000488 23.000092,31.000488 C24.102478,31.000488 25.000061,30.103027 25.000061,29.001465 C25.000061,29.001465 25.000061,17.000488 25.000061,17.000488 C25.000061,15.8984375 24.102478,15.000977 23.000092,15.000977 C23.000092,15.000977 5.000122,15.000977 5.000122,15.000977 ZM14.000122,19.000977 C15.104675,19.000977 16.000061,19.895996 16.000061,21.000488 C16.000061,22.105469 15.104675,23.000977 14.000122,23.000977 C12.895508,23.000977 12.0000305,22.105469 12.0000305,21.000488 C12.0000305,19.895996 12.895508,19.000977 14.000122,19.000977 ZM14.000122,21.000488 C14.552277,21.000488 15.000092,21.448242 15.000092,22.000977 C15.000092,22.000977 15.000092,26.000488 15.000092,26.000488 C15.000092,26.55371 14.552277,27.000488 14.000122,27.000488 C13.447693,27.000488 13.000122,26.55371 13.000122,26.000488 C13.000122,26.000488 13.000122,22.000977 13.000122,22.000977 C13.000122,21.448242 13.447693,21.000488 14.000122,21.000488 Z"/>
</svg>