<svg xmlns="http://www.w3.org/2000/svg"
 xmlns:xlink="http://www.w3.org/1999/xlink"
 width="36px" height="35px"  viewBox="0 0 36 35">
<path fill-rule="evenodd"  fill="#e2574c"
 d="M21.00769,33.984863 C11.919312,33.984863 11.848877,33.60791 10.723511,32.760254 C10.126343,32.311035 9.000122,32.0 4.885376,31.732422 C4.586731,31.712402 4.3029175,31.598633 4.112488,31.3667 C4.0250244,31.260254 1.9688721,28.262207 1.9688721,23.459473 C1.9688721,18.72705 3.4405518,16.569336 3.50354,16.469238 C3.6862793,16.177246 4.0064697,15.999023 4.3513184,15.999023 C7.7297363,15.999023 12.412964,11.687012 15.561951,4.1586914 C16.106323,2.8564453 16.218811,2.0 18.218933,2.0 C19.356445,2.0 20.631653,2.8149414 21.261414,3.8598633 C22.552673,5.9941406 21.897278,10.580078 21.289917,13.030762 C23.352417,13.01416 27.085938,12.98584 28.862244,12.98584 C31.333862,12.98584 32.968628,14.459473 33.018433,16.61377 C33.035034,17.324707 32.941284,18.23291 32.73529,18.702148 C33.279114,19.244629 33.981323,20.062988 34.011658,21.11621 C34.04962,22.476074 33.159058,23.512207 32.59076,24.106445 C32.720642,24.501465 32.98224,25.025879 32.95685,25.65332 C32.89435,27.194824 31.703918,28.189453 30.961792,28.70752 C31.023376,29.129395 31.071167,29.925293 30.936401,30.540527 C30.401245,32.99756 26.798767,33.984863 21.00769,33.984863 ZM5.4161987,29.703613 C9.000122,30.000488 10.915894,30.401855 11.926636,31.162598 C12.708801,31.751953 12.588318,31.984375 21.00769,31.984375 C23.57611,31.984375 28.59845,31.877441 28.983337,30.114746 C29.136597,29.409668 28.393372,28.716309 28.390503,28.711426 C28.187378,28.21045 28.41388,27.62207 28.908936,27.405762 C28.91687,27.401855 30.912903,26.686035 30.958923,25.5708 C30.98822,24.856934 30.498901,24.428223 30.487183,24.410645 C30.196045,23.958008 30.302612,23.338379 30.744019,23.030762 C30.748901,23.027344 32.042786,22.242676 32.011536,21.17334 C31.987183,20.324707 30.868042,19.72705 30.833862,19.70752 C30.583923,19.563965 30.40216,19.316895 30.34552,19.033691 C30.289001,18.750977 30.352295,18.45459 30.528198,18.225586 C30.528198,18.225586 31.036072,17.416992 31.018433,16.659668 C30.981262,15.036621 29.236145,14.98584 28.862244,14.98584 C26.339722,14.98584 19.861267,15.011719 19.861267,15.011719 C19.511536,15.012695 19.209717,14.848145 19.02185,14.568848 C18.834229,14.289551 18.82019,13.942383 18.930481,13.624512 C19.907043,10.810547 20.45288,6.3969727 19.546753,4.88916 C19.280151,4.444336 19.218872,4.0 18.218933,4.0 C18.0802,4.0 17.750366,4.109375 17.406616,4.930176 C14.0633545,12.924805 9.072449,17.548828 4.984497,17.966797 C4.631897,18.770508 3.968933,20.436035 3.968933,23.459473 C3.968933,26.544434 4.946411,28.93164 5.4161987,29.703613 Z"/>
</svg>