<svg xmlns="http://www.w3.org/2000/svg"
 xmlns:xlink="http://www.w3.org/1999/xlink"
 width="35px" height="34px"  viewBox="0 0 35 34">
<path fill-rule="evenodd"  fill="#e2574c"
 d="M22.011925,3.1298828 C22.011925,3.1298828 31.000114,7.0063477 31.000114,7.0063477 C31.000114,7.0063477 31.000114,30.3125 31.000114,30.3125 C31.000114,30.3125 22.004944,26.92627 22.004944,26.92627 C22.004944,26.92627 12.004982,30.879395 12.004982,30.879395 C12.004982,30.879395 3.000084,27.210938 3.000084,27.210938 C3.000084,27.210938 3.000084,3.7094727 3.000084,3.7094727 C3.000084,3.7094727 12.024551,7.043457 12.024551,7.043457 C12.024551,7.043457 22.011925,3.1298828 22.011925,3.1298828 ZM22.007004,1.0610352 C22.007004,1.0610352 12.024551,5.012207 12.024551,5.012207 C12.024551,5.012207 1.9629059,1.0625 1.9629059,1.0625 C1.8770752,1.0371094 1.7930756,1.027832 1.7139969,1.027832 C1.3038406,1.0253906 1.0001144,1.3325195 1.0001144,1.793457 C1.0001144,1.793457 1.0001144,27.730469 1.0001144,27.730469 C1.0001144,28.279785 1.4337311,28.85205 1.9629059,28.998535 C1.9629059,28.998535 12.036224,32.973145 12.036224,32.973145 C12.036224,32.973145 22.004944,28.92627 22.004944,28.92627 C22.004944,28.92627 32.037178,32.867188 32.037178,32.867188 C32.123123,32.890625 32.207237,32.902832 32.2862,32.902832 C32.696472,32.902832 33.0002,32.598145 33.0002,32.13672 C33.0002,32.13672 33.0002,6.4887695 33.0002,6.4887695 C33.0002,5.9399414 32.56658,5.3671875 32.037178,5.21875 C32.037178,5.21875 22.007004,1.0610352 22.007004,1.0610352 ZM11.000191,5.1875 C11.000191,5.1875 13.000046,5.1875 13.000046,5.1875 C13.000046,5.1875 13.000046,32.00049 13.000046,32.00049 C13.000046,32.00049 11.000191,32.00049 11.000191,32.00049 C11.000191,32.00049 11.000191,5.1875 11.000191,5.1875 ZM21.000153,2.0 C21.000153,2.0 23.000122,2.0 23.000122,2.0 C23.000122,2.0 23.000122,28.219238 23.000122,28.219238 C23.000122,28.219238 21.000153,28.219238 21.000153,28.219238 C21.000153,28.219238 21.000153,2.0 21.000153,2.0 Z"/>
</svg>